<?xml version="1.0" encoding="UTF-8"?>
<svg xmlns="http://www.w3.org/2000/svg" xmlns:xlink="http://www.w3.org/1999/xlink" width="14px" height="16px" viewBox="0 0 14 15" version="1.1">
<g id="surface1">
<path style=" stroke:none;fill-rule:nonzero;fill:rgb(0%,0%,0%);fill-opacity:1;" d="M 1.5 5.769531 L 1.5 11.539062 L 0.75 11.539062 C 0.0234375 11.539062 0 11.5625 0 12.691406 C 0 13.605469 0.125 13.964844 0.574219 14.375 C 1.148438 14.878906 1.351562 14.902344 7.023438 14.902344 C 12.851562 14.902344 12.925781 14.902344 13.449219 14.351562 C 14 13.796875 14 13.652344 14 6.898438 L 14 0 L 1.5 0 Z M 13.5 7.066406 C 13.5 12.742188 13.449219 13.726562 13.101562 14.039062 C 12.125 14.976562 11 14.207031 11 12.597656 L 11 11.539062 L 2 11.539062 L 2 0.480469 L 13.5 0.480469 Z M 10.5 12.933594 C 10.5 13.4375 10.625 13.964844 10.800781 14.132812 C 11.023438 14.351562 10 14.421875 6.199219 14.421875 C 0.726562 14.421875 0.5 14.351562 0.5 12.835938 L 0.5 12.019531 L 10.5 12.019531 Z M 10.5 12.933594 "/>
<path style=" stroke:none;fill-rule:nonzero;fill:rgb(0%,0%,0%);fill-opacity:1;" d="M 4.5 3.605469 C 4.5 3.726562 4.625 3.847656 4.75 3.847656 C 4.898438 3.847656 5 3.726562 5 3.605469 C 5 3.460938 4.898438 3.367188 4.75 3.367188 C 4.625 3.367188 4.5 3.460938 4.5 3.605469 Z M 4.5 3.605469 "/>
<path style=" stroke:none;fill-rule:nonzero;fill:rgb(0%,0%,0%);fill-opacity:1;" d="M 6 3.605469 C 6 3.75 7 3.847656 8.5 3.847656 C 10 3.847656 11 3.75 11 3.605469 C 11 3.460938 10 3.367188 8.5 3.367188 C 7 3.367188 6 3.460938 6 3.605469 Z M 6 3.605469 "/>
<path style=" stroke:none;fill-rule:nonzero;fill:rgb(0%,0%,0%);fill-opacity:1;" d="M 4.5 5.527344 C 4.5 5.648438 4.625 5.769531 4.75 5.769531 C 4.898438 5.769531 5 5.648438 5 5.527344 C 5 5.382812 4.898438 5.289062 4.75 5.289062 C 4.625 5.289062 4.5 5.382812 4.5 5.527344 Z M 4.5 5.527344 "/>
<path style=" stroke:none;fill-rule:nonzero;fill:rgb(0%,0%,0%);fill-opacity:1;" d="M 6 5.527344 C 6 5.671875 7 5.769531 8.5 5.769531 C 10 5.769531 11 5.671875 11 5.527344 C 11 5.382812 10 5.289062 8.5 5.289062 C 7 5.289062 6 5.382812 6 5.527344 Z M 6 5.527344 "/>
<path style=" stroke:none;fill-rule:nonzero;fill:rgb(0%,0%,0%);fill-opacity:1;" d="M 4.5 7.453125 C 4.5 7.570312 4.625 7.691406 4.75 7.691406 C 4.898438 7.691406 5 7.570312 5 7.453125 C 5 7.308594 4.898438 7.210938 4.75 7.210938 C 4.625 7.210938 4.5 7.308594 4.5 7.453125 Z M 4.5 7.453125 "/>
<path style=" stroke:none;fill-rule:nonzero;fill:rgb(0%,0%,0%);fill-opacity:1;" d="M 6 7.453125 C 6 7.597656 7 7.691406 8.5 7.691406 C 10 7.691406 11 7.597656 11 7.453125 C 11 7.308594 10 7.210938 8.5 7.210938 C 7 7.210938 6 7.308594 6 7.453125 Z M 6 7.453125 "/>
<path style=" stroke:none;fill-rule:nonzero;fill:rgb(0%,0%,0%);fill-opacity:1;" d="M 4.5 9.375 C 4.5 9.496094 4.625 9.617188 4.75 9.617188 C 4.898438 9.617188 5 9.496094 5 9.375 C 5 9.230469 4.898438 9.132812 4.75 9.132812 C 4.625 9.132812 4.5 9.230469 4.5 9.375 Z M 4.5 9.375 "/>
<path style=" stroke:none;fill-rule:nonzero;fill:rgb(0%,0%,0%);fill-opacity:1;" d="M 6 9.375 C 6 9.519531 7 9.617188 8.5 9.617188 C 10 9.617188 11 9.519531 11 9.375 C 11 9.230469 10 9.132812 8.5 9.132812 C 7 9.132812 6 9.230469 6 9.375 Z M 6 9.375 "/>
<path style=" stroke:none;fill-rule:nonzero;fill:rgb(0%,0%,0%);fill-opacity:1;" d="M 0.75 12.742188 C 0.75 12.859375 0.875 12.980469 1 12.980469 C 1.148438 12.980469 1.25 12.859375 1.25 12.742188 C 1.25 12.597656 1.148438 12.5 1 12.5 C 0.875 12.5 0.75 12.597656 0.75 12.742188 Z M 0.75 12.742188 "/>
<path style=" stroke:none;fill-rule:nonzero;fill:rgb(0%,0%,0%);fill-opacity:1;" d="M 1.75 12.742188 C 1.75 12.859375 1.875 12.980469 2 12.980469 C 2.148438 12.980469 2.25 12.859375 2.25 12.742188 C 2.25 12.597656 2.148438 12.5 2 12.5 C 1.875 12.5 1.75 12.597656 1.75 12.742188 Z M 1.75 12.742188 "/>
<path style=" stroke:none;fill-rule:nonzero;fill:rgb(0%,0%,0%);fill-opacity:1;" d="M 2.75 12.742188 C 2.75 12.859375 2.875 12.980469 3 12.980469 C 3.148438 12.980469 3.25 12.859375 3.25 12.742188 C 3.25 12.597656 3.148438 12.5 3 12.5 C 2.875 12.5 2.75 12.597656 2.75 12.742188 Z M 2.75 12.742188 "/>
<path style=" stroke:none;fill-rule:nonzero;fill:rgb(0%,0%,0%);fill-opacity:1;" d="M 3.75 12.742188 C 3.75 12.859375 3.875 12.980469 4 12.980469 C 4.148438 12.980469 4.25 12.859375 4.25 12.742188 C 4.25 12.597656 4.148438 12.5 4 12.5 C 3.875 12.5 3.75 12.597656 3.75 12.742188 Z M 3.75 12.742188 "/>
<path style=" stroke:none;fill-rule:nonzero;fill:rgb(0%,0%,0%);fill-opacity:1;" d="M 4.75 12.742188 C 4.75 12.859375 4.875 12.980469 5 12.980469 C 5.148438 12.980469 5.25 12.859375 5.25 12.742188 C 5.25 12.597656 5.148438 12.5 5 12.5 C 4.875 12.5 4.75 12.597656 4.75 12.742188 Z M 4.75 12.742188 "/>
<path style=" stroke:none;fill-rule:nonzero;fill:rgb(0%,0%,0%);fill-opacity:1;" d="M 5.75 12.742188 C 5.75 12.859375 5.875 12.980469 6 12.980469 C 6.148438 12.980469 6.25 12.859375 6.25 12.742188 C 6.25 12.597656 6.148438 12.5 6 12.5 C 5.875 12.5 5.75 12.597656 5.75 12.742188 Z M 5.75 12.742188 "/>
<path style=" stroke:none;fill-rule:nonzero;fill:rgb(0%,0%,0%);fill-opacity:1;" d="M 6.75 12.742188 C 6.75 12.859375 6.875 12.980469 7 12.980469 C 7.148438 12.980469 7.25 12.859375 7.25 12.742188 C 7.25 12.597656 7.148438 12.5 7 12.5 C 6.875 12.5 6.75 12.597656 6.75 12.742188 Z M 6.75 12.742188 "/>
<path style=" stroke:none;fill-rule:nonzero;fill:rgb(0%,0%,0%);fill-opacity:1;" d="M 7.75 12.742188 C 7.75 12.859375 7.875 12.980469 8 12.980469 C 8.148438 12.980469 8.25 12.859375 8.25 12.742188 C 8.25 12.597656 8.148438 12.5 8 12.5 C 7.875 12.5 7.75 12.597656 7.75 12.742188 Z M 7.75 12.742188 "/>
<path style=" stroke:none;fill-rule:nonzero;fill:rgb(0%,0%,0%);fill-opacity:1;" d="M 8.75 12.742188 C 8.75 12.859375 8.875 12.980469 9 12.980469 C 9.148438 12.980469 9.25 12.859375 9.25 12.742188 C 9.25 12.597656 9.148438 12.5 9 12.5 C 8.875 12.5 8.75 12.597656 8.75 12.742188 Z M 8.75 12.742188 "/>
<path style=" stroke:none;fill-rule:nonzero;fill:rgb(0%,0%,0%);fill-opacity:1;" d="M 9.75 12.742188 C 9.75 12.859375 9.875 12.980469 10 12.980469 C 10.148438 12.980469 10.25 12.859375 10.25 12.742188 C 10.25 12.597656 10.148438 12.5 10 12.5 C 9.875 12.5 9.75 12.597656 9.75 12.742188 Z M 9.75 12.742188 "/>
</g>
</svg>
